<svg width="48" height="48" viewBox="0 0 48 48" fill="none" xmlns="http://www.w3.org/2000/svg">
<rect width="48" height="48" rx="10" fill="white"/>
<path d="M24.0061 23.46C24.8968 23.46 25.6568 23.1433 26.2861 22.51C26.9154 21.8767 27.2301 21.1147 27.2301 20.224C27.2301 19.3333 26.9134 18.5733 26.2801 17.944C25.6454 17.3147 24.8834 17 23.9941 17C23.1048 17 22.3448 17.3173 21.7141 17.952C21.0848 18.5853 20.7701 19.3473 20.7701 20.238C20.7701 21.1287 21.0868 21.8887 21.7201 22.518C22.3548 23.1473 23.1168 23.462 24.0061 23.462M24.0001 39.354C27.7601 36.082 30.7321 32.7547 32.9161 29.372C35.1001 25.988 36.1921 23.0613 36.1921 20.592C36.1921 16.9333 35.0341 13.9133 32.7181 11.532C30.4021 9.15067 27.4961 7.96067 24.0001 7.962C20.5054 7.962 17.5994 9.152 15.2821 11.532C12.9648 13.912 11.8068 16.932 11.8081 20.592C11.8081 23.0613 12.9001 25.988 15.0841 29.372C17.2694 32.7547 20.2414 36.0833 24.0001 39.354ZM24.0001 42.038C19.3001 37.882 15.7601 34.006 13.3801 30.41C10.9988 26.814 9.80811 23.5413 9.80811 20.592C9.80811 16.3613 11.1854 12.872 13.9401 10.124C16.6961 7.37467 20.0494 6 24.0001 6C27.9508 6 31.3041 7.37467 34.0601 10.124C36.8148 12.872 38.1921 16.3613 38.1921 20.592C38.1921 23.5413 37.0021 26.814 34.6221 30.41C32.2408 34.006 28.7001 37.882 24.0001 42.038Z" fill="black"/>
</svg>
