<svg xmlns="http://www.w3.org/2000/svg" version="1.1" xmlns:xlink="http://www.w3.org/1999/xlink" xmlns:svgjs="http://svgjs.dev/svgjs" viewBox="0 0 1422 800" opacity="0.78"><defs><linearGradient x1="50%" y1="0%" x2="50%" y2="100%" id="ccchaos-grad"><stop stop-color="#3e6af2" stop-opacity="1" offset="0%"></stop><stop stop-color="#ffffff" stop-opacity="1" offset="100%"></stop></linearGradient></defs><g stroke-width="2" stroke="url(#ccchaos-grad)" fill="none" stroke-linecap="round"><path d="M684.02 42.34C689.68 43.7 695.31 45.29 700.89 47.08 706.48 48.92 712.03 50.91 717.55 53.03 723.08 55.13 728.59 57.31 734.09 59.55 739.61 61.7 745.13 63.88 750.66 66.07 761.87 70.01 773.28 73.87 785 77.57 797.14 80.58 809.83 83.47 823.2 86.29 837.18 88.57 851.98 90.97 867.59 93.61 883.72 96.05 900.47 98.97 917.57 102.46 934.49 106.11 951.04 110.52 966.63 115.73 980.76 121.34 992.87 127.82 1002.3 135.15 1009.08 142.95 1012.56 151.57 1012.59 160.91 1010.2 170.67 1005.14 181.06 998.21 191.98 991.36 203.2 984.95 214.83 980.33 226.78 979.36 238.9 982.29 251.25 989.75 263.74 1002.04 276.32 1018.23 288.99 1037.15 301.7 1057.28 314.44 1076.43 327.2 1092.4 339.93 1098.73 346.29 1103.59 352.66 1106.82 359 1108.44 365.35 1108.27 371.69 1106.29 378 1102.74 384.32 1097.56 390.62 1090.91 396.89 1083.24 403.16 1074.61 409.41 1065.31 415.62 1055.9 421.83 1046.61 427.92 1037.77 433.9 1029.76 439.88 1022.75 445.73 1016.95 451.46 1011.2 459.98 1009.55 476.32 1013.4 484.11 1023.12 494.35 1035.62 503.95 1048.83 512.88 1061.58 521.7 1071.19 529.81 1076.34 537.21 1076.92 544.51 1071.99 551.13 1062.02 557.11 1048.08 563.13 1030.92 568.66 1011.94 573.8 992.34 579.27 973.27 584.62 955.66 590.03 940.16 596.16 927.14 602.7 916.64 609.83 908.78 618.05 902.99 627.12 898.73 637.13 896.11 648.35 894.02 660.48 891.91 673.42 890.18 687.14 887.66 701.21 884.1 715.25 880.15 729.09 874.89 742.09 868.33 753.72 861.22 763.9 852.9 771.89 843.51 777.27 833.72 780.38 823.08 780.57 811.77 777.83 806.03 775.68 800.17 772.89 794.19 769.51 788.18 765.78 782.08 761.57 775.89 756.98 769.68 752.25 763.41 747.29 757.07 742.2 750.73 737.23 744.33 732.3 737.88 727.5 731.43 723.09 725 719.01 718.61 715.33 712.21 712.23 705.84 709.61 699.5 707.5 693.15 706.05 686.81 705.13 680.5 704.73 674.17 704.97 667.86 705.69 661.55 706.83 648.87 710.7 636.18 715.65 623.45 721.14 610.62 727.33 597.74 732.96 584.83 737.52 571.87 741.31 558.95 743.24 546.15 743.1 533.5 741.37 521.15 737.38 509.25 731.24 497.79 723.53 487 713.98 477.04 702.91 467.74 690.81 459.39 677.7 452.08 663.9 445.37 649.77 439.58 635.4 434.63 621.03 429.87 606.83 425.61 592.87 421.68 579.26 417.37 566.06 413.04 553.25 408.61 540.83 403.48 528.82 398.18 517.13 392.8 505.69 386.95 494.56 381.29 483.56 376.05 472.62 370.93 461.87 366.6 451.06 363.22 440.17 361.13 432.02 358.56 415.52 358.06 407.16 358.01 398.76 359.17 381.68 360.27 373.01 361.5 364.32 364.32 347.05 365.8 338.49 367.1 329.97 369.54 313.14 370.66 304.87 371.8 293.92 373.14 283.25 374.81 272.91 376.45 262.68 378.8 252.85 382.02 243.48 385.76 234.25 390.61 225.52 396.56 217.34 403.19 209.29 410.82 201.79 419.26 194.85 428 187.96 437.19 181.58 446.62 175.66 455.75 169.65 464.81 163.99 473.66 158.61 481.85 152.94 489.78 147.39 497.46 141.9 504.5 135.91 511.46 129.85 518.44 123.69 525.05 116.95 531.92 110.08 539.12 103.12 546.25 95.7 553.88 88.32 562.03 81.1 570.28 73.74 579.1 66.81 588.44 60.49 597.92 54.47 607.87 49.34 618.22 45.28 626.08 42.76 642.21 39.55 650.43 38.9 658.73 38.85 675.52 40.6 684.01 42.33" stroke-dasharray="19 2" transform="rotate(0, 711, 400)" opacity="0.05"></path><path d="M685.79 55.03C696.75 57.85 707.77 61.48 718.86 65.71 730.01 69.85 741.32 74.27 752.85 78.8 764.56 82.81 776.63 86.76 789.16 90.56 802.02 93.69 815.48 96.7 829.56 99.61 844.04 101.97 859.14 104.39 874.75 106.98 890.48 109.31 906.4 112.03 922.14 115.23 937.27 118.49 951.5 122.42 964.3 127.06 975.4 132.01 984.26 137.76 990.39 144.31 994.16 151.27 994.99 159.02 992.97 167.49 989.31 176.36 983.85 185.87 977.43 195.94 971.89 206.32 967.48 217.16 965.34 228.36 966.93 239.77 972.31 251.45 981.77 263.31 995.35 275.3 1012.05 287.41 1030.63 299.58 1049.7 311.82 1067.29 324.08 1081.49 336.3 1091.14 348.56 1094.76 360.77 1091.78 372.88 1083.22 385.01 1069.47 397.01 1052.26 408.84 1034.62 420.68 1018.47 432.03 1005.79 442.86 998.31 453.67 996.24 463.94 999.34 473.62 1007.41 483.24 1018.41 492.26 1030.58 500.65 1042.95 508.97 1053.04 516.66 1059.53 523.74 1062.25 530.8 1060.02 537.32 1053.01 543.34 1042.07 549.5 1027.59 555.33 1010.7 560.95 992.48 566.97 973.91 573.03 955.96 579.29 939.3 586.29 924.47 593.76 911.73 601.85 901.26 610.94 892.83 620.82 886.1 631.51 881.16 643.19 877.18 655.6 873.7 668.56 870.99 682.04 868.04 695.62 864.53 708.93 861.01 721.85 856.55 733.76 851.05 744.21 845.22 753.2 838.3 760.05 830.34 764.41 822.06 766.68 812.86 766.26 802.86 763.19 792.68 758.34 781.83 751.38 770.42 742.76 758.96 733.74 747.03 724.21 734.7 714.81 722.36 706.83 709.95 700.25 697.49 695.41 685.03 692.94 672.5 692.35 659.93 693.48 647.34 696.65 634.68 700.88 621.98 705.72 609.27 711.37 596.53 716.66 583.84 721.13 571.23 725.08 558.76 727.47 546.54 728.07 534.61 727.33 523.1 724.55 512.17 719.79 501.76 713.56 492.1 705.54 483.31 695.98 475.16 685.35 467.94 673.58 461.67 660.98 455.89 647.88 450.88 634.36 446.55 620.64 442.25 606.9 438.28 593.23 434.49 579.76 430.21 566.54 425.81 553.61 421.22 541.01 415.92 528.73 410.44 516.74 404.86 505.03 398.87 493.58 393.11 482.32 387.79 471.19 382.65 460.24 378.34 449.33 375.03 438.42 372.34 427.6 370.78 416.71 370.37 405.75 370.48 394.8 371.52 383.75 373.33 372.59 375.1 361.43 377.19 350.43 379.43 339.63 381.1 328.84 382.73 318.28 384.3 307.99 385.3 297.74 386.42 287.81 387.79 278.25 389.07 268.77 391.01 259.7 393.74 251.08 396.96 242.56 401.27 234.52 406.68 226.99 412.8 219.52 419.96 212.55 428.03 206.06 436.51 199.56 445.58 193.47 455.01 187.76 464.31 181.89 473.65 176.27 482.88 170.86 491.56 165.1 499.99 159.4 508.17 153.71 515.7 147.52 523.05 141.25 530.32 134.86 537.1 127.94 543.98 120.91 551.04 113.84 557.88 106.37 565.08 98.99 572.68 91.83 580.24 84.6 588.3 77.83 596.84 71.7 605.42 65.91 614.49 61.03 624 57.2 633.56 54.02 643.52 52.06 653.84 51.36 664.17 51.39 674.82 52.62 685.78 55.02" stroke-dasharray="21 19" transform="rotate(3.884615384615385, 711, 400)" opacity="0.09"></path><path d="M691.67 67.71C702.36 70.54 713.29 74.16 724.44 78.36 735.66 82.49 747.19 86.91 759.06 91.45 771.09 95.53 783.56 99.56 796.5 103.46 809.67 106.72 823.35 109.85 837.5 112.88 851.82 115.33 866.48 117.82 881.29 120.41 895.89 122.69 910.24 125.27 923.97 128.23 936.77 131.19 948.31 134.71 958.11 138.85 966.2 143.22 972.01 148.31 975.28 154.13 976.61 160.3 975.5 167.21 972.23 174.82 968.1 182.79 962.96 191.41 957.67 200.6 953.87 210.1 951.69 220.08 952.06 230.45 956.07 241.05 963.59 251.97 974.69 263.11 989.17 274.39 1006 285.84 1023.97 297.37 1041.81 308.99 1057.77 320.65 1070.23 332.3 1078.32 343.99 1080.78 355.63 1077.22 367.17 1068.68 378.72 1055.5 390.15 1039.2 401.4 1022.51 412.64 1007.08 423.41 994.66 433.67 986.85 443.91 983.87 453.62 985.64 462.78 992.11 471.91 1001.58 480.48 1012.57 488.49 1024.31 496.48 1034.53 503.94 1041.96 510.89 1046.39 517.89 1046.51 524.48 1042.26 530.72 1034.27 537.17 1022.62 543.45 1008.18 549.65 991.88 556.3 974.51 563.11 957 570.21 940 578.03 924.13 586.35 909.8 595.26 897.25 605.06 886.5 615.54 877.43 626.69 870.09 638.62 863.96 651.07 858.67 663.84 854.41 676.9 850.36 689.83 846.19 702.29 842.35 714.2 837.95 724.99 832.83 734.27 827.62 742.1 821.53 747.86 814.53 751.28 807.33 752.78 799.25 751.84 790.33 748.49 781.27 743.6 771.47 736.83 760.99 728.58 750.46 720.03 739.33 711.02 727.66 702.12 715.99 694.52 704.1 688.16 692.05 683.33 680.02 680.66 667.84 679.69 655.57 680.28 643.32 682.78 630.99 686.32 618.64 690.51 606.36 695.57 594.12 700.45 582 704.73 570.08 708.72 558.39 711.41 547.07 712.59 536.13 712.68 525.72 710.94 515.96 707.4 506.75 702.55 498.31 695.99 490.75 687.89 483.74 678.75 477.58 668.39 472.27 657.09 467.27 645.19 462.89 632.69 459.02 619.84 455.02 606.81 451.19 593.68 447.39 580.6 443.02 567.63 438.44 554.83 433.63 542.28 428.11 529.94 422.41 517.85 416.64 506.02 410.53 494.41 404.68 482.99 399.33 471.76 394.23 460.68 390 449.71 386.81 438.83 384.29 428.03 382.93 417.25 382.73 406.49 383.08 395.76 384.35 385 386.38 374.25 388.37 363.49 390.65 352.97 393.02 342.72 394.79 332.47 396.46 322.51 398 312.87 398.9 303.25 399.85 293.98 400.98 285.1 401.94 276.27 403.47 267.85 405.74 259.87 408.43 251.94 412.15 244.46 416.95 237.44 422.47 230.43 429.07 223.84 436.64 217.67 444.73 211.42 453.51 205.5 462.79 199.88 472.11 194.04 481.6 188.38 491.1 182.86 500.2 176.95 509.11 171.07 517.81 165.15 525.91 158.75 533.79 152.25 541.51 145.66 548.71 138.58 555.87 131.43 563.1 124.28 569.99 116.8 577.09 109.47 584.49 102.41 591.72 95.34 599.35 88.77 607.41 82.87 615.41 77.34 623.88 72.71 632.81 69.12 641.72 66.17 651.09 64.4 660.91 63.85 670.71 63.99 680.96 65.29 691.66 67.71" stroke-dasharray="21 18" transform="rotate(7.76923076923077, 711, 400)" opacity="0.12"></path><path d="M700.69 80.4C711.19 83.23 722.02 86.81 733.16 90.97 744.36 95.08 755.94 99.49 767.89 104.04 779.95 108.17 792.44 112.26 805.31 116.25 818.29 119.65 831.63 122.91 845.2 126.05 858.72 128.64 872.28 131.22 885.63 133.85 898.52 136.12 910.79 138.63 922.09 141.44 932.32 144.16 941.07 147.36 947.97 151.09 954.92 157.21 955.99 173.13 951.12 182.98 947.23 190.09 943.05 197.82 939.36 206.12 937.56 214.71 937.72 223.8 940.51 233.31 946.69 243.05 956.01 253.13 968.34 263.47 983.33 273.97 999.96 284.67 1017.07 295.49 1033.55 306.4 1047.86 317.39 1058.64 328.39 1065.25 339.44 1066.67 350.46 1062.62 361.39 1054.16 372.34 1041.55 383.18 1026.15 393.84 1010.39 404.51 995.68 414.73 983.56 424.47 975.5 434.2 971.73 443.45 972.28 452.21 977.23 460.95 985.17 469.21 994.88 476.99 1005.77 484.79 1015.8 492.16 1023.78 499.14 1029.5 506.23 1031.58 513.03 1029.78 519.62 1024.59 526.47 1015.78 533.25 1003.99 540.09 990.02 547.39 974.42 554.92 958.03 562.79 941.47 571.33 925.36 580.35 910.19 589.92 896.24 600.23 883.71 611.1 872.66 622.49 863.12 634.45 854.86 646.72 847.61 659.11 841.5 671.58 835.92 683.73 830.59 695.24 825.8 706.09 820.83 715.74 815.48 723.86 810.26 730.57 804.42 735.31 797.88 737.87 791.27 738.7 783.9 737.3 775.76 733.74 767.53 728.85 758.57 722.29 748.91 714.42 739.2 706.33 728.85 697.84 717.91 689.43 706.96 682.21 695.71 676.07 684.25 671.28 672.83 668.45 661.22 667.12 649.51 667.23 637.87 669.1 626.16 671.97 614.47 675.51 602.93 679.97 591.49 684.38 580.26 688.39 569.31 692.29 558.68 695.15 548.51 696.74 538.75 697.48 529.57 696.62 521.1 694.15 513.13 690.53 505.92 685.31 499.53 678.63 493.57 670.93 488.35 662 483.82 652.05 479.43 641.44 475.5 630.12 471.91 618.3 468.02 606.18 464.17 593.82 460.24 581.36 455.66 568.88 450.83 556.45 445.74 544.16 439.98 531.99 434.06 520.01 428.12 508.25 421.91 496.64 416.03 485.22 410.7 474 405.7 462.91 401.6 451.96 398.58 441.16 396.26 430.43 395.11 419.79 395.13 409.24 395.71 398.72 397.2 388.25 399.44 377.86 401.63 367.47 404.07 357.39 406.57 347.63 408.45 337.86 410.18 328.43 411.72 319.35 412.59 310.28 413.42 301.58 414.36 293.27 415.05 284.98 416.22 277.09 418.03 269.63 420.19 262.16 423.32 255.11 427.48 248.46 432.34 241.77 438.28 235.44 445.22 229.46 452.77 223.34 461.11 217.48 470.07 211.85 479.23 205.95 488.7 200.18 498.31 194.48 507.69 188.39 516.99 182.29 526.14 176.14 534.8 169.52 543.26 162.82 551.52 156.05 559.27 148.85 566.92 141.62 574.52 134.44 581.74 127.01 589.05 119.77 596.53 112.85 603.78 105.99 611.31 99.66 619.19 94.01 626.94 88.75 635.1 84.39 643.7 81.05 652.24 78.34 661.25 76.76 670.74 76.36 680.21 76.6 690.18 77.97 700.68 80.4" stroke-dasharray="3 11" transform="rotate(11.653846153846155, 711, 400)" opacity="0.16"></path><path d="M711.39 93.09C721.72 95.91 732.39 99.45 743.39 103.55 754.42 107.63 765.81 112.01 777.53 116.55 789.3 120.71 801.38 124.86 813.71 128.94 826.02 132.45 838.47 135.85 850.91 139.12 863.12 141.85 875.06 144.55 886.5 147.25 897.32 149.58 907.26 152.07 916 154.79 926.75 158.83 937.85 169.18 937.93 175.77 936.52 180.57 933.86 185.99 930.39 192.01 927.34 198.3 924.6 205.19 922.83 212.63 923.18 220.33 925.63 228.53 930.63 237.16 938.67 246 949.41 255.22 962.57 264.73 977.69 274.39 993.81 284.28 1009.86 294.34 1024.88 304.49 1037.54 314.75 1046.69 325.06 1051.95 335.42 1052.43 345.78 1047.98 356.08 1039.64 366.41 1027.61 376.65 1013.09 386.76 998.24 396.86 984.25 406.57 972.48 415.86 964.26 425.15 959.82 434.02 959.26 442.47 962.78 450.92 969.22 458.98 977.57 466.65 987.44 474.38 997 481.79 1005.17 488.92 1011.77 496.19 1015.4 503.3 1015.69 510.29 1013.01 517.58 1006.93 524.91 997.84 532.36 986.43 540.26 973.02 548.44 958.31 556.97 942.88 566.08 927.29 575.64 912.05 585.66 897.45 596.28 883.83 607.33 871.34 618.72 860.06 630.49 849.94 642.4 840.86 654.23 832.87 665.96 825.6 677.22 818.82 687.72 812.72 697.47 806.75 705.99 800.7 712.98 794.94 718.64 788.84 722.43 782.29 724.21 775.79 724.44 768.71 722.66 761.02 718.95 753.3 714.09 744.93 707.77 735.93 700.29 726.9 692.66 717.25 684.67 707.03 676.75 696.81 669.89 686.29 663.98 675.56 659.26 664.88 656.28 654.03 654.65 643.1 654.31 632.27 655.6 621.43 657.83 610.67 660.73 600.1 664.58 589.71 668.49 579.61 672.14 569.8 675.86 560.4 678.75 551.5 680.61 543.01 681.83 535.12 681.68 527.92 680.11 521.14 677.57 515.06 673.56 509.7 668.17 504.62 661.85 500.14 654.32 496.19 645.73 492.21 636.47 488.53 626.4 485.01 615.73 481.08 604.68 477.07 593.26 472.88 581.6 468.02 569.84 462.88 557.99 457.47 546.18 451.47 534.41 445.35 522.74 439.27 511.22 433.03 499.8 427.17 488.54 421.92 477.47 417.07 466.5 413.16 455.68 410.35 445.03 408.26 434.44 407.34 423.98 407.59 413.67 408.39 403.38 410.08 393.2 412.5 383.16 414.86 373.12 417.46 363.42 420.08 354.09 422.08 344.76 423.89 335.78 425.47 327.17 426.34 318.56 427.11 310.32 427.9 302.48 428.38 294.62 429.24 287.15 430.65 280.06 432.31 272.94 434.85 266.18 438.35 259.78 442.5 253.29 447.72 247.1 453.94 241.19 460.82 235.1 468.57 229.21 477.03 223.48 485.84 217.46 495.09 211.51 504.61 205.61 514.08 199.32 523.6 192.99 533.06 186.61 542.18 179.81 551.15 172.95 559.94 166.03 568.29 158.76 576.49 151.51 584.6 144.34 592.32 137.01 600.04 129.91 607.84 123.18 615.35 116.56 623.06 110.49 631.02 105.12 638.8 100.16 646.92 96.09 655.42 93 663.83 90.53 672.68 89.14 682 88.88 691.27 89.24 701.06 90.65 711.39 93.09" stroke-dasharray="18 13" transform="rotate(15.53846153846154, 711, 400)" opacity="0.20"></path><path d="M722.03 105.78C732.16 108.57 742.58 112.06 753.25 116.1 763.94 120.13 774.9 124.46 786.05 128.98 797.21 133.16 808.52 137.36 819.88 141.5 831.13 145.13 842.29 148.65 853.18 152.06 863.73 154.94 873.78 157.77 883.09 160.59 891.73 163 899.34 165.52 905.68 168.21 915.87 176.85 914.51 194.16 910.73 201.91 909.01 207.46 908.02 213.57 908.32 220.2 910.82 227.05 915.39 234.39 922.31 242.16 931.85 250.13 943.6 258.48 957.18 267.14 972.1 275.95 987.45 285.02 1002.27 294.29 1015.77 303.65 1026.8 313.16 1034.42 322.75 1038.42 332.39 1038.08 342.08 1033.31 351.76 1025.14 361.45 1013.7 371.11 1000.03 380.68 986.08 390.25 972.81 399.49 961.42 408.39 953.12 417.28 948.12 425.85 946.58 434.07 948.77 442.32 953.75 450.26 960.73 457.92 969.44 465.66 978.29 473.18 986.32 480.53 993.4 488.04 998.14 495.48 1000.12 502.91 999.62 510.62 996.03 518.45 989.56 526.45 980.79 534.86 969.81 543.56 957.18 552.59 943.45 562.11 929.02 572.01 914.43 582.28 899.95 592.98 885.96 603.99 872.72 615.18 860.29 626.57 848.81 637.93 838.25 649.05 828.61 659.94 819.75 670.23 811.53 679.66 803.98 688.31 796.79 695.71 789.76 701.63 783.12 706.3 776.4 709.23 769.48 710.31 762.7 710.02 755.57 707.93 748.01 704.12 740.47 699.35 732.45 693.28 723.92 686.19 715.38 679.02 706.33 671.52 696.8 664.06 687.26 657.56 677.5 651.89 667.58 647.25 657.71 644.17 647.74 642.28 637.76 641.53 627.88 642.28 618.07 643.91 608.41 646.2 598.95 649.42 589.73 652.8 580.88 656.05 572.3 659.49 564.16 662.3 556.56 664.29 549.3 665.83 542.62 666.22 536.59 665.38 530.85 663.75 525.72 660.8 521.18 656.58 516.76 651.53 512.78 645.31 509.17 638.05 505.38 630.12 501.73 621.35 498.11 611.89 493.98 602.02 489.68 591.66 485.15 580.97 479.95 570.08 474.47 559.01 468.76 547.86 462.54 536.68 456.27 525.51 450.11 514.42 443.89 503.37 438.12 492.44 433.02 481.66 428.38 470.93 424.7 460.36 422.14 449.96 420.31 439.6 419.63 429.39 420.1 419.35 421.1 409.33 422.98 399.45 425.55 389.74 428.07 380.03 430.8 370.69 433.54 361.74 435.66 352.78 437.56 344.18 439.21 335.97 440.13 327.73 440.89 319.86 441.6 312.37 441.93 304.83 442.54 297.66 443.59 290.84 444.8 283.94 446.79 277.37 449.64 271.1 453.07 264.7 457.52 258.54 462.96 252.61 469.07 246.47 476.08 240.47 483.89 234.59 492.14 228.41 500.96 222.27 510.18 216.14 519.52 209.65 529.03 203.12 538.61 196.54 548 189.59 557.32 182.6 566.53 175.6 575.4 168.31 584.14 161.09 592.76 154 601.03 146.82 609.26 139.92 617.49 133.41 625.43 127.07 633.48 121.3 641.68 116.23 649.7 111.59 657.97 107.81 666.53 104.99 674.99 102.75 683.82 101.55 693.05 101.43 702.24 101.88 711.89 103.34 722.03 105.78" stroke-dasharray="0 18" transform="rotate(19.423076923076923, 711, 400)" opacity="0.23"></path><path d="M730.87 118.47C740.74 121.23 750.78 124.66 760.95 128.61 771.13 132.58 781.42 136.86 791.75 141.33 802.03 145.52 812.28 149.74 822.38 153.93 832.3 157.66 841.92 161.3 851.07 164.84 859.84 167.88 867.92 170.85 875.14 173.8 890.37 181.55 898.51 194.4 896.79 199.79 894.76 205.72 893.13 220.24 895.98 228.85 900.46 234.92 906.9 241.46 915.39 248.43 926.03 255.55 938.38 263.07 951.99 270.91 966.4 278.88 980.78 287.14 994.24 295.63 1006.19 304.2 1015.63 312.95 1021.81 321.83 1024.68 330.76 1023.62 339.78 1018.62 348.84 1010.65 357.91 999.81 367 986.98 376.06 973.89 385.13 961.35 393.95 950.38 402.5 942.07 411.06 936.61 419.37 934.21 427.43 935.2 435.53 938.79 443.42 944.39 451.12 951.85 458.91 959.8 466.58 967.41 474.16 974.59 481.92 980.04 489.68 983.29 497.49 984.57 505.58 983.14 513.82 979.08 522.25 972.88 531.05 964.41 540.11 954.1 549.46 942.45 559.2 929.72 569.23 916.37 579.52 902.71 590.11 889.08 600.86 875.79 611.65 862.91 622.49 850.67 633.16 839.16 643.45 828.32 653.4 818.2 662.67 808.73 671.03 799.86 678.58 791.47 684.91 783.41 689.81 775.75 693.57 768.23 695.72 760.73 696.18 753.42 695.46 745.98 693.13 738.32 689.27 730.72 684.61 722.82 678.81 714.6 672.12 706.38 665.39 697.8 658.37 688.88 651.37 679.96 645.23 670.92 639.8 661.83 635.26 652.78 632.11 643.73 629.99 634.76 628.88 625.88 629.15 617.15 630.21 608.65 631.91 600.31 634.52 592.29 637.35 584.67 640.15 577.27 643.25 570.34 645.88 563.93 647.87 554.93 649.97 539.9 648.15 533.7 643.92 529.69 640 525.97 634.98 522.46 628.97 518.64 622.33 514.83 614.83 510.94 606.62 506.5 597.96 501.83 588.74 496.9 579.11 491.35 569.23 485.55 559.07 479.57 548.74 473.17 538.31 466.81 527.8 460.65 517.31 454.51 506.8 448.91 496.34 444.02 485.98 439.64 475.66 436.25 465.44 433.96 455.38 432.41 445.35 431.98 435.46 432.66 425.74 433.87 416.03 435.9 406.48 438.61 397.1 441.26 387.72 444.11 378.72 446.95 370.1 449.19 361.46 451.2 353.19 452.94 345.28 453.94 337.35 454.73 329.76 455.42 322.52 455.66 315.22 456.09 308.25 456.86 301.58 457.68 294.82 459.16 288.33 461.41 282.09 464.14 275.71 467.81 269.51 472.43 263.49 477.69 257.24 483.87 251.1 490.88 245.03 498.41 238.68 506.6 232.34 515.3 226 524.26 219.33 533.52 212.63 542.97 205.9 552.39 198.85 561.84 191.8 571.27 184.77 580.49 177.53 589.62 170.39 598.65 163.44 607.42 156.46 616.11 149.8 624.77 143.57 633.18 137.53 641.62 132.09 650.14 127.35 658.49 123.03 666.99 119.55 675.69 117 684.29 115 693.17 113.99 702.35 114 711.49 114.54 720.99 116.05 730.87 118.47" stroke-dasharray="4 12" transform="rotate(23.30769230769231, 711, 400)" opacity="0.27"></path><path d="M736.47 131.15C746 133.87 755.54 137.23 765.06 141.1 774.57 144.99 784.02 149.19 793.35 153.61 802.59 157.77 811.62 162 820.32 166.23 828.82 170.04 836.85 173.78 844.27 177.44 854.46 182.2 869.78 190.88 874.5 195.02 877.84 203.17 876.66 217.85 876.92 224.07 878.61 228.44 881.47 233.26 885.79 238.53 892.03 243.91 899.99 249.74 909.65 255.97 920.97 262.33 933.52 269.07 946.84 276.15 960.47 283.33 973.68 290.82 985.72 298.55 996.11 306.36 1004.03 314.39 1008.88 322.58 1010.74 330.81 1009.06 339.18 1003.9 347.65 996.18 356.12 985.93 364.68 973.92 373.27 961.68 381.86 949.86 390.29 939.34 398.54 931.09 406.8 925.29 414.89 922.16 422.83 922.05 430.81 924.35 438.67 928.6 446.42 934.77 454.27 941.68 462.08 948.62 469.87 955.58 477.83 961.35 485.86 965.44 493.98 968.07 502.34 968.43 510.86 966.47 519.58 962.62 528.6 956.59 537.84 948.67 547.32 939.31 557.07 928.61 567.03 916.98 577.14 904.71 587.41 892.08 597.72 879.39 607.94 866.76 618.09 854.44 627.94 842.58 637.32 831.13 646.28 820.24 654.5 809.91 661.78 800.05 668.27 790.68 673.58 781.73 677.54 773.14 680.47 764.83 681.93 756.7 681.86 748.78 680.77 740.9 678.26 733.01 674.4 725.21 669.88 717.29 664.37 709.23 658.08 701.19 651.8 692.96 645.24 684.56 638.68 676.15 632.9 667.78 627.71 659.47 623.29 651.19 620.09 643.02 617.78 635.02 616.37 627.09 616.19 619.39 616.74 611.99 617.87 604.7 619.9 597.77 622.17 591.26 624.49 581.94 628.37 565.81 633.7 558.99 634.32 552.61 633.31 541.18 625.38 535.7 618.52 531.66 613.09 527.55 606.8 523.28 599.79 518.44 592.35 513.36 584.3 508.02 575.78 502.13 566.97 496.05 557.82 489.86 548.41 483.37 538.86 477 529.15 470.91 519.37 464.95 509.54 459.57 499.7 454.95 489.89 450.89 480.09 447.82 470.35 445.83 460.72 444.57 451.11 444.4 441.61 445.29 432.26 446.67 422.92 448.85 413.71 451.66 404.67 454.43 395.63 457.37 386.95 460.3 378.63 462.66 370.29 464.79 362.3 466.63 354.64 467.74 346.95 468.62 339.57 469.33 332.5 469.56 325.37 469.87 318.52 470.43 311.92 470.94 305.23 471.99 298.75 473.69 292.48 475.76 286.05 478.68 279.77 482.48 273.61 486.86 267.24 492.15 260.94 498.27 254.68 504.94 248.17 512.33 241.65 520.31 235.13 528.65 228.33 537.41 221.5 546.47 214.68 555.64 207.6 564.97 200.54 574.35 193.56 583.67 186.43 592.97 179.45 602.22 172.7 611.3 165.97 620.33 159.59 629.29 153.67 638.08 147.98 646.86 142.89 655.64 138.49 664.29 134.5 673.01 131.33 681.84 129.05 690.58 127.29 699.49 126.46 708.59 126.59 717.65 127.22 726.95 128.76 736.47 131.15" stroke-dasharray="1 10" transform="rotate(27.19230769230769, 711, 400)" opacity="0.31"></path><path d="M737.93 143.84C747.01 146.51 755.95 149.78 764.72 153.55 773.47 157.35 782 161.47 790.24 165.8 798.4 169.93 806.18 174.15 813.51 178.39 820.64 182.26 827.2 186.08 833.09 189.85 841.07 194.82 852.42 203.94 855.67 208.26 858.4 216.46 860.8 230.43 863.57 236.12 867.02 240.06 871.66 244.41 877.67 249.14 885.33 253.95 894.42 259.16 904.82 264.76 916.43 270.44 928.82 276.49 941.53 282.87 954.17 289.33 966.09 296.11 976.65 303.15 985.53 310.25 992.02 317.6 995.65 325.15 996.61 332.73 994.42 340.49 989.17 348.39 981.73 356.31 972.07 364.35 960.86 372.5 949.45 380.66 938.34 388.73 928.3 396.7 920.19 404.67 914.14 412.58 910.39 420.4 909.32 428.26 910.43 436.08 913.39 443.87 918.25 451.75 924.03 459.65 930.13 467.59 936.59 475.68 942.31 483.86 946.84 492.17 950.39 500.67 952.11 509.34 951.87 518.17 950.07 527.23 946.27 536.47 940.64 545.86 933.62 555.44 925.13 565.12 915.49 574.85 905.03 584.64 893.89 594.34 882.37 603.85 870.62 613.19 858.86 622.14 847.26 630.55 835.82 638.49 824.73 645.66 814.05 651.89 803.67 657.38 793.71 661.73 784.17 664.83 774.91 667.01 765.98 667.86 757.33 667.35 748.88 665.97 740.6 663.33 732.46 659.52 724.41 655.18 716.41 649.97 708.44 644.08 700.49 638.22 692.52 632.12 684.54 625.99 676.56 620.56 668.74 615.62 661.12 611.33 653.5 608.11 646.1 605.66 638.96 603.98 631.86 603.4 625.05 603.48 618.58 604.1 612.18 605.55 606.14 607.28 600.51 609.11 592.38 612.39 578.16 617.33 571.98 618.23 565.93 617.9 554.4 612.19 548.51 606.79 544.13 602.43 539.6 597.26 534.88 591.38 529.62 585.1 524.13 578.2 518.42 570.78 512.25 563.09 505.96 554.98 499.65 546.55 493.16 537.96 486.87 529.14 480.94 520.18 475.23 511.13 470.15 502 465.87 492.85 462.17 483.67 459.44 474.5 457.78 465.39 456.82 456.29 456.9 447.25 457.98 438.32 459.52 429.4 461.82 420.58 464.72 411.9 467.57 403.21 470.59 394.84 473.6 386.8 476.07 378.75 478.31 371 480.27 363.54 481.52 356.05 482.51 348.84 483.3 341.89 483.56 334.87 483.84 328.08 484.27 321.51 484.55 314.83 485.25 308.33 486.49 301.99 487.98 295.49 490.22 289.1 493.23 282.81 496.75 276.31 501.12 269.86 506.29 263.44 512.01 256.79 518.47 250.15 525.57 243.5 533.09 236.63 541.13 229.75 549.55 222.89 558.21 215.85 567.11 208.87 576.19 202 585.31 195.05 594.5 188.29 603.7 181.79 612.85 175.37 621.97 169.33 631.04 163.75 640.02 158.43 648.96 153.7 657.87 149.66 666.7 146.02 675.53 143.16 684.38 141.14 693.17 139.61 702.03 138.96 710.95 139.21 719.85 139.92 728.85 141.47 737.93 143.84" stroke-dasharray="8 5" transform="rotate(31.07692307692308, 711, 400)" opacity="0.34"></path><path d="M735 156.53C743.55 159.14 751.83 162.32 759.8 165.97 767.75 169.66 775.35 173.68 782.56 177.92 789.68 181.99 796.33 186.17 802.46 190.4 808.42 194.3 813.77 198.19 818.47 202.04 824.84 207.2 833.75 216.77 836.41 221.29 840.12 229.68 847.56 243.31 852.82 248.63 857.88 252.26 864.05 256.23 871.41 260.55 880.1 264.89 889.9 269.59 900.64 274.65 912.15 279.76 924.05 285.21 935.9 291 947.39 296.83 957.94 302.97 967.01 309.4 974.43 315.86 979.58 322.59 982.12 329.55 982.3 336.53 979.7 343.73 974.43 351.12 967.3 358.51 958.24 366.09 947.81 373.83 937.2 381.57 926.8 389.3 917.26 397 909.34 404.71 903.14 412.41 898.9 420.09 897 427.82 897.04 435.57 898.8 443.34 902.38 451.19 906.97 459.11 912.09 467.1 917.82 475.21 923.2 483.44 927.81 491.78 931.85 500.28 934.5 508.92 935.57 517.69 935.43 526.6 933.54 535.65 929.98 544.77 925.16 553.98 918.88 563.22 911.35 572.41 902.91 581.55 893.6 590.53 883.66 599.21 873.28 607.66 862.61 615.65 851.84 623.06 841 629.98 830.28 636.12 819.78 641.36 809.42 645.89 799.35 649.37 789.61 651.7 780.06 653.22 770.83 653.56 761.9 652.68 753.12 651.07 744.59 648.37 736.29 644.65 728.07 640.5 720.01 635.6 712.11 630.1 704.24 624.67 696.48 619.01 688.83 613.3 681.18 608.21 673.82 603.53 666.75 599.39 659.67 596.18 652.89 593.62 646.43 591.71 636.91 590.62 619.64 592.11 611.93 594.05 604.56 596.67 591.37 600.96 585.38 601.97 579.28 602.06 567.04 598.08 560.54 593.9 555.73 590.46 550.75 586.29 545.57 581.43 539.91 576.22 534.06 570.4 528.05 564.05 521.69 557.43 515.3 550.37 508.97 542.94 502.58 535.34 496.47 527.45 490.79 519.35 485.41 511.16 480.7 502.82 476.8 494.39 473.49 485.92 471.14 477.4 469.81 468.87 469.15 460.34 469.47 451.83 470.73 443.38 472.42 434.92 474.81 426.52 477.78 418.21 480.69 409.9 483.76 401.86 486.83 394.1 489.4 386.32 491.76 378.8 493.84 371.52 495.25 364.22 496.38 357.14 497.29 350.27 497.65 343.34 497.96 336.6 498.33 330.03 498.48 323.36 498.93 316.82 499.8 310.39 500.81 303.83 502.44 297.35 504.75 290.94 507.46 284.35 510.93 277.79 515.16 271.26 519.89 264.53 525.35 257.82 531.47 251.12 538.03 244.24 545.15 237.39 552.74 230.59 560.63 223.66 568.86 216.83 577.34 210.15 585.97 203.44 594.76 196.96 603.63 190.78 612.54 184.71 621.48 179.03 630.4 173.84 639.31 168.91 648.18 164.56 657.01 160.88 665.8 157.59 674.56 155.04 683.26 153.28 691.95 151.98 700.62 151.5 709.24 151.86 717.86 152.64 726.46 154.2 735 156.53" stroke-dasharray="11 20" transform="rotate(34.96153846153846, 711, 400)" opacity="0.38"></path><path d="M728.17 169.22C736.11 171.76 743.7 174.83 750.91 178.36 758.08 181.94 764.84 185.83 771.14 189.96 777.37 193.95 783.1 198.07 788.28 202.26 795.62 208.14 807.2 219.33 811.48 224.58 818.06 233.83 827.01 247.11 831.15 251.71 834.9 254.7 839.36 257.93 844.65 261.41 851.04 264.82 858.39 268.53 866.71 272.53 876.02 276.52 886.11 280.83 896.79 285.46 907.88 290.11 919.01 295.07 929.8 300.35 940.02 305.65 949.16 311.26 956.78 317.15 962.82 323.05 966.75 329.24 968.32 335.68 967.83 342.12 964.91 348.82 959.68 355.73 952.88 362.65 944.42 369.79 934.75 377.14 924.93 384.49 915.23 391.89 906.21 399.31 898.53 406.74 892.28 414.22 887.66 421.74 885.06 429.29 884.17 436.91 884.82 444.59 887.18 452.33 890.57 460.16 894.64 468.08 899.48 476.1 904.27 484.22 908.64 492.45 912.79 500.79 915.94 509.23 917.9 517.75 918.98 526.36 918.62 535.03 916.81 543.71 913.94 552.4 909.7 561.04 904.22 569.54 897.85 577.93 890.5 586.08 882.37 593.87 873.68 601.38 864.5 608.39 854.99 614.79 845.25 620.71 835.41 625.88 825.59 630.18 815.75 633.84 806.05 636.53 796.56 638.18 787.15 639.13 777.99 639.03 769.09 637.86 760.29 636.1 751.74 633.38 743.44 629.78 735.21 625.85 727.2 621.27 719.42 616.16 711.66 611.14 704.09 605.91 696.73 600.62 689.36 595.86 682.35 591.44 675.69 587.45 669.02 584.28 662.69 581.65 656.71 579.57 647.88 577.99 631.88 578.12 624.67 579.32 617.65 581.26 604.67 584.72 598.49 585.66 592.04 585.97 578.66 583.22 571.47 580.01 566.22 577.34 560.8 574.01 555.2 570.04 549.22 565.78 543.11 560.94 536.91 555.57 530.48 549.97 524.1 543.9 517.87 537.44 511.69 530.82 505.86 523.87 500.52 516.65 495.55 509.34 491.26 501.82 487.78 494.15 484.9 486.44 482.94 478.61 481.95 470.73 481.57 462.83 482.12 454.88 483.55 446.94 485.36 439 487.83 431.06 490.83 423.15 493.79 415.24 496.89 407.54 500.01 400.06 502.66 392.57 505.12 385.27 507.33 378.18 508.9 371.06 510.2 364.11 511.26 357.33 511.76 350.5 512.16 343.8 512.56 337.23 512.66 330.57 512.97 324.01 513.58 317.54 514.22 310.95 515.36 304.41 517.06 297.93 519.05 291.3 521.71 284.69 525.05 278.11 528.81 271.39 533.26 264.68 538.35 258.01 543.87 251.21 549.96 244.47 556.56 237.81 563.5 231.08 570.84 224.48 578.5 218.06 586.38 211.66 594.5 205.52 602.76 199.69 611.14 194.01 619.6 188.74 628.1 183.95 636.65 179.43 645.19 175.48 653.68 172.16 662.2 169.22 670.66 166.97 679.04 165.47 687.42 164.39 695.73 164.07 703.93 164.53 712.13 165.37 720.23 166.94 728.17 169.22" stroke-dasharray="11 4" transform="rotate(38.84615384615385, 711, 400)" opacity="0.42"></path><path d="M718.54 181.91C725.85 184.36 732.77 187.33 739.27 190.72 745.76 194.16 751.8 197.92 757.39 201.91 762.93 205.81 768 209.84 772.57 213.96 779.11 219.83 789.78 231.17 794.07 236.57 798.18 241.51 805.9 250.97 810.11 255.61 815.4 260.02 829.49 269.26 838.85 274.24 846.22 277.54 854.35 281.07 863.2 284.86 872.72 288.61 882.72 292.63 892.98 296.94 903.36 301.22 913.51 305.81 923.1 310.68 931.98 315.55 939.71 320.71 945.94 326.15 950.7 331.59 953.53 337.3 954.26 343.29 953.21 349.27 950.07 355.51 944.93 362 938.5 368.48 930.62 375.22 921.69 382.19 912.63 389.17 903.63 396.23 895.15 403.36 887.77 410.5 881.54 417.72 876.66 425.01 873.5 432.33 871.79 439.74 871.46 447.24 872.69 454.78 874.93 462.41 877.9 470.14 881.75 477.92 885.76 485.81 889.63 493.76 893.56 501.78 896.84 509.87 899.26 517.99 901.14 526.13 901.88 534.27 901.42 542.36 900.15 550.4 897.66 558.31 894.02 566.02 889.6 573.58 884.17 580.83 877.91 587.68 871.05 594.24 863.56 600.28 855.59 605.7 847.29 610.68 838.7 614.92 829.95 618.36 821.07 621.24 812.17 623.23 803.33 624.29 794.48 624.76 785.76 624.31 777.23 622.93 768.73 621.07 760.43 618.38 752.37 614.93 744.34 611.24 736.53 606.98 728.95 602.26 721.4 597.64 714.06 592.82 706.95 587.93 699.84 583.5 693.11 579.34 686.74 575.53 680.36 572.42 674.32 569.75 668.63 567.53 660.19 565.54 644.78 564.45 637.7 564.96 630.67 566.22 617.24 568.7 610.62 569.43 603.63 569.77 588.94 567.81 581.06 565.33 575.42 563.26 569.64 560.61 563.74 557.39 557.55 553.94 551.29 549.95 545.04 545.45 538.67 540.76 532.44 535.61 526.44 530.06 520.58 524.35 515.13 518.3 510.22 511.95 505.7 505.5 501.89 498.81 498.87 491.92 496.42 484.97 494.85 477.87 494.2 470.64 494.11 463.4 494.87 456.06 496.44 448.66 498.35 441.25 500.87 433.8 503.89 426.32 506.86 418.84 509.98 411.51 513.11 404.33 515.83 397.15 518.39 390.11 520.72 383.21 522.45 376.29 523.92 369.5 525.16 362.82 525.84 356.1 526.39 349.48 526.88 342.95 527.03 336.35 527.29 329.81 527.75 323.34 528.15 316.77 528.92 310.25 530.14 303.76 531.54 297.16 533.5 290.59 536.04 284.05 538.91 277.41 542.41 270.8 546.5 264.25 550.96 257.62 555.99 251.07 561.53 244.63 567.4 238.17 573.71 231.87 580.39 225.79 587.32 219.76 594.54 214 601.97 208.59 609.56 203.33 617.3 198.49 625.13 194.12 633.04 190.03 641 186.47 648.93 183.52 656.92 180.93 664.87 178.98 672.73 177.73 680.62 176.85 688.41 176.68 696.06 177.23 703.72 178.12 711.23 179.68 718.54 181.91" stroke-dasharray="20 6" transform="rotate(42.73076923076923, 711, 400)" opacity="0.45"></path><path d="M707.68 194.59C714.36 196.96 720.66 199.8 726.58 203.04 732.48 206.35 737.98 209.95 743.07 213.8 750.48 219.53 763.31 231.32 768.82 237.2 774.11 242.71 783.87 253.33 788.72 258.43 794.16 263.17 807.02 272.56 814.94 277.32 821.05 280.37 827.75 283.57 835.05 286.93 843 290.17 851.5 293.62 860.46 297.28 869.81 300.87 879.37 304.69 888.93 308.77 898.36 312.8 907.37 317.09 915.68 321.65 923.2 326.18 929.56 330.99 934.49 336.05 939.02 343.77 936.83 360.52 930.19 369.54 924.14 375.63 916.85 381.99 908.64 388.6 900.31 395.2 892 401.92 884.07 408.73 877.03 415.54 870.9 422.46 865.87 429.47 862.27 436.49 859.9 443.62 858.72 450.82 858.92 458.06 860.07 465.39 861.97 472.78 864.77 480.22 867.89 487.72 871.06 495.26 874.51 502.83 877.59 510.41 880.1 517.98 882.36 525.53 883.77 533.03 884.25 540.4 884.16 547.69 883.05 554.8 880.94 561.65 878.19 568.33 874.51 574.66 869.99 580.57 864.93 586.18 859.16 591.28 852.83 595.77 846.13 599.86 839.01 603.27 831.59 605.93 823.97 608.12 816.17 609.5 808.3 610.07 800.35 610.15 792.4 609.42 784.53 607.9 776.64 605.99 768.86 603.37 761.24 600.11 753.64 596.66 746.2 592.72 738.95 588.39 731.72 584.16 724.67 579.74 717.83 575.24 710.98 571.14 704.49 567.24 698.34 563.62 692.17 560.59 686.31 557.91 680.75 555.6 672.49 553.28 657.11 551.11 649.88 550.98 642.61 551.59 628.33 553.01 621.14 553.42 613.54 553.64 597.62 552.07 589.19 550.08 583.27 548.46 577.26 546.33 571.19 543.7 564.94 540.91 558.71 537.62 552.56 533.87 546.39 529.96 540.44 525.62 534.79 520.88 529.35 516.02 524.37 510.79 519.95 505.25 515.95 499.63 512.64 493.72 510.09 487.59 508.09 481.4 506.91 475 506.58 468.45 506.75 461.86 507.71 455.14 509.4 448.3 511.39 441.46 513.94 434.52 516.95 427.49 519.91 420.47 523.02 413.53 526.16 406.68 528.92 399.84 531.55 393.08 533.99 386.42 535.88 379.73 537.53 373.13 538.96 366.61 539.85 360.05 540.59 353.56 541.23 347.12 541.49 340.63 541.8 334.19 542.22 327.79 542.5 321.32 543.04 314.88 543.92 308.47 544.87 301.99 546.28 295.54 548.16 289.14 550.26 282.67 552.91 276.26 556.08 269.92 559.56 263.55 563.56 257.28 568.05 251.15 572.83 245.04 578.06 239.11 583.68 233.41 589.55 227.81 595.73 222.49 602.18 217.51 608.81 212.71 615.64 208.32 622.6 204.39 629.68 200.72 636.84 197.56 644.02 194.98 651.28 192.72 658.53 191.06 665.72 190.04 672.95 189.37 680.09 189.33 687.1 189.96 694.13 190.89 701 192.44 707.68 194.59" stroke-dasharray="1 1" transform="rotate(46.61538461538462, 711, 400)" opacity="0.49"></path><path d="M697.36 207.28C703.44 209.56 709.2 212.26 714.65 215.34 720.09 218.49 725.21 221.93 730.01 225.6 737.07 231.12 749.82 242.62 755.66 248.42 761.49 253.95 773.1 264.73 779.22 269.97 788.5 276.29 798.94 282.77 810.99 289.5 825.09 295.61 840.95 302.24 858.06 309.5 866.9 313.01 875.72 316.71 884.34 320.62 892.67 324.48 900.45 328.57 907.44 332.88 916.17 339.43 925.51 353.71 925.44 361.45 923.61 366.68 920.26 372.17 915.46 377.91 909.8 383.64 903.09 389.62 895.58 395.86 887.97 402.1 880.33 408.46 872.97 414.91 866.31 421.37 860.35 427.93 855.27 434.58 851.36 441.24 848.47 447.99 846.57 454.82 845.88 461.66 846.04 468.57 846.92 475.52 848.68 482.49 850.84 489.49 853.19 496.49 855.95 503.49 858.57 510.46 860.87 517.37 865.23 531.03 866.88 544.15 865.39 556.27 862.02 567.61 855.46 577.37 846.3 585.01 841.18 588.29 835.58 590.95 829.58 592.93 823.35 594.51 816.84 595.39 810.13 595.55 803.3 595.33 796.35 594.4 789.35 592.79 782.31 590.89 775.27 588.38 768.29 585.31 761.3 582.12 754.39 578.52 747.59 574.56 740.8 570.71 734.13 566.68 727.59 562.55 721.06 558.77 714.81 555.14 708.83 551.71 702.84 548.79 697.09 546.13 691.58 543.77 683.36 541.2 667.73 538.11 660.2 537.41 652.58 537.38 637.34 537.72 629.58 537.75 618.61 537.98 607.36 536.98 595.84 534.52 583.62 531.75 571.39 527.25 559.59 521.08 553.78 517.82 548.23 514.16 543.05 510.13 538.12 505.99 533.67 501.5 529.8 496.69 524.95 489.23 519.54 472.89 519.1 464.13 519.52 458.2 520.64 452.08 522.43 445.82 524.48 439.54 527.03 433.12 530 426.57 532.93 420.02 536.01 413.51 539.13 407.03 541.92 400.56 544.6 394.13 547.12 387.74 549.16 381.34 550.99 374.99 552.61 368.68 553.72 362.34 554.68 356.04 555.51 349.77 555.96 343.47 556.39 337.19 556.87 330.95 557.15 324.66 557.6 318.4 558.28 312.18 559.64 299.61 562.56 287.2 567.18 275.15 572.64 263.1 579.97 251.61 588.9 241.01 593.68 235.87 598.81 231.02 604.21 226.51 609.79 222.19 615.61 218.26 621.6 214.77 627.71 211.52 633.96 208.77 640.27 206.54 646.67 204.6 653.1 203.22 659.52 202.43 665.98 201.93 672.39 202.03 678.72 202.72 685.06 203.68 691.29 205.2 697.36 207.28" stroke-dasharray="3 6" transform="rotate(50.5, 711, 400)" opacity="0.53"></path><path d="M689.26 219.97C700.32 224.44 710.5 230.37 719.82 237.34 729.21 244.2 737.95 251.64 746.26 259.39 755.07 266.49 764.03 273.73 773.51 281.01 784.2 287.53 796.04 294.21 809.19 301.07 823.75 307.36 839.41 314.06 855.53 321.26 871.53 328.12 886.27 335.68 898.33 343.99 907.36 352.15 911.75 361.17 910.73 371.07 905.67 380.92 895.87 391.71 882.53 403.44 868.84 415.18 855.75 427.34 844.83 439.78 837.68 452.26 833.79 465.01 832.79 477.84 835.09 490.65 838.55 503.41 842.01 515.82 845.97 527.94 848.14 539.39 847.96 549.75 846.59 559.34 842.51 567.38 836.01 573.43 828.33 578.25 818.78 580.77 807.93 580.78 796.54 579.59 784.42 576.11 772.01 570.56 759.52 564.69 746.99 557.62 734.66 549.86 722.33 543.28 710.72 537.23 699.81 532.04 688.74 528.68 678.13 526.14 667.85 524.23 657.14 523.75 646.47 523.3 635.72 522.53 624.37 522.32 612.81 521.18 601.15 518.88 589.16 516.5 577.4 512.67 566.34 507.39 555.84 501.81 546.82 494.8 539.85 486.52 534.49 478.01 531.72 468.38 531.78 457.82 533.39 447.18 537.29 435.74 543.06 423.63 548.69 411.53 554.57 399.36 560.12 387.26 563.99 375.14 567.14 363.03 569.65 351.03 570.65 338.94 571.65 326.91 573.04 315.04 574.04 303.11 576.2 291.38 579.71 280.08 583.71 268.89 589.32 258.32 596.38 248.67 604.12 239.52 613.12 231.61 623.04 225.3 633.39 219.88 644.34 216.33 655.52 214.88 666.86 214.49 678.2 216.18 689.26 219.97" stroke-dasharray="15 11" transform="rotate(54.38461538461538, 711, 400)" opacity="0.56"></path><path d="M684.7 232.66C694.79 236.88 704.43 242.45 713.63 249 722.95 255.51 732.06 262.63 741.13 270.1 750.7 277.08 760.69 284.26 771.31 291.53 782.87 298.17 795.41 304.96 808.88 311.92 823.13 318.36 837.89 325.13 852.47 332.3 866.41 339.14 878.73 346.55 888.3 354.57 895.09 362.43 897.78 371.03 895.85 380.38 890.67 389.68 881.57 399.81 869.47 410.76 857.09 421.72 845.02 433.02 834.53 444.51 827.03 456.01 822.1 467.67 819.61 479.29 820.06 490.82 821.79 502.17 823.92 513.04 826.99 523.58 829 533.36 829.39 542.01 829.2 549.96 826.85 556.43 822.42 561.07 817.12 564.71 809.98 566.33 801.4 565.8 792.32 564.35 782.22 560.97 771.48 555.85 760.61 550.55 749.34 544.19 737.87 537.18 726.4 531.15 715.28 525.46 704.51 520.39 693.64 516.84 682.95 513.9 672.38 511.47 661.52 510.29 650.59 509.17 639.58 507.85 628.21 507.14 616.74 505.73 605.38 503.43 593.99 501.19 583.05 497.78 573.01 493.16 563.72 488.37 555.95 482.32 550.19 475.09 545.92 467.71 544.01 459.24 544.63 449.82 546.54 440.34 550.5 429.99 556.11 418.9 561.61 407.8 567.4 396.52 572.96 385.19 577.08 373.86 580.62 362.46 583.56 351.12 585.08 339.75 586.45 328.41 588 317.27 588.95 306.14 590.71 295.27 593.48 284.86 596.41 274.66 600.67 265.1 606.21 256.47 612.18 248.36 619.35 241.43 627.49 236 635.95 231.38 645.15 228.45 654.81 227.42 664.58 227.29 674.61 229.03 684.7 232.66" stroke-dasharray="16 22" transform="rotate(58.26923076923077, 711, 400)" opacity="0.60"></path><path d="M684.42 245.35C693.66 249.31 702.85 254.49 711.97 260.6 721.21 266.71 730.59 273.45 740.21 280.58 750.23 287.34 760.8 294.36 771.97 301.51 783.75 308.16 796.26 314.99 809.27 321.95 822.56 328.48 835.86 335.29 848.49 342.4 860.19 349.22 870.1 356.49 877.34 364.25 882.16 371.85 883.42 380.06 880.82 388.88 875.67 397.65 867.29 407.12 856.41 417.26 845.3 427.41 834.27 437.78 824.35 448.22 816.72 458.66 811.06 469.14 807.38 479.44 806.19 489.63 806.26 499.52 806.96 508.82 808.81 517.81 810.16 525.98 810.49 533.03 810.04 542.02 800.11 551.11 790.82 550.65 783.76 549.06 775.53 545.86 766.4 541.19 757.14 536.45 747.19 530.78 736.71 524.49 726.22 519.01 715.73 513.71 705.31 508.83 694.83 505.18 684.32 501.95 673.79 499.11 663.1 497.34 652.29 495.63 641.45 493.8 630.48 492.56 619.55 490.81 608.89 488.39 598.45 486.13 588.64 482.94 579.85 478.76 571.89 474.51 565.44 469.19 560.89 462.83 557.66 456.38 556.55 448.91 557.65 440.53 559.81 432.09 563.75 422.8 569.17 412.72 574.48 402.65 580.11 392.31 585.63 381.86 589.95 371.42 593.8 360.87 597.16 350.34 599.21 339.84 601.07 329.38 602.93 319.12 604.08 308.95 605.75 299.07 608.15 289.68 610.45 280.54 613.79 272.07 618.19 264.51 622.79 257.43 628.49 251.48 635.14 246.9 641.98 243.04 649.65 240.69 657.95 240.03 666.31 240.14 675.18 241.9 684.42 245.35" stroke-dasharray="19 11" transform="rotate(62.15384615384616, 711, 400)" opacity="0.63"></path><path d="M688.46 258.04C696.95 261.71 705.69 266.5 714.62 272.13 723.67 277.81 733.07 284.1 742.83 290.81 752.88 297.27 763.45 304.02 774.5 310.94 785.86 317.49 797.65 324.23 809.55 331.1 821.37 337.63 832.8 344.39 843.27 351.38 852.7 358.13 860.31 365.23 865.46 372.7 868.59 380.04 868.72 387.85 865.66 396.13 860.67 404.37 853.05 413.15 843.36 422.45 833.47 431.74 823.5 441.13 814.25 450.48 806.72 459.8 800.62 469.03 796.05 477.99 793.52 486.82 792.11 495.25 791.39 503.04 792.06 513.88 791.59 529.9 788.75 534.29 784.24 536.33 768.23 532.27 757.21 526.6 749.43 522.4 740.77 517.4 731.36 511.8 721.95 506.86 712.26 501.97 702.44 497.33 692.61 493.68 682.59 490.29 672.49 487.16 662.34 484.92 652.09 482.72 641.87 480.43 631.71 478.7 621.72 476.59 612.15 473.98 602.95 471.59 594.48 468.47 587.09 464.56 580.53 460.67 575.41 455.89 572.03 450.22 569.76 444.5 569.35 437.89 570.84 430.43 573.18 422.94 577.05 414.64 582.23 405.58 587.3 396.53 592.73 387.18 598.13 377.69 602.56 368.23 606.66 358.64 610.37 349.07 612.94 339.56 615.3 330.1 617.59 320.88 619.12 311.77 620.97 302.98 623.3 294.71 625.35 286.69 628.19 279.33 631.87 272.84 635.56 266.81 640.19 261.8 645.7 258.03 651.3 254.88 657.73 253.06 664.9 252.73 672.1 253.03 679.97 254.79 688.46 258.04" stroke-dasharray="4 17" transform="rotate(66.03846153846153, 711, 400)" opacity="0.67"></path><path d="M696.18 270.72C703.96 274.11 712.17 278.47 720.72 283.61 729.35 288.81 738.42 294.61 747.86 300.82 757.45 306.88 767.47 313.26 777.76 319.84 788.14 326.16 798.64 332.68 808.96 339.34 818.95 345.74 828.32 352.34 836.58 359.12 843.81 365.71 849.33 372.57 852.7 379.7 854.43 386.72 853.71 394.09 850.41 401.79 845.69 409.46 838.85 417.52 830.3 425.93 821.6 434.34 812.7 442.71 804.22 450.92 796.98 459.12 790.72 467.1 785.57 474.72 782.02 482.23 779.39 489.27 777.42 495.65 774.93 510.69 767.21 521.27 761.33 520.01 756.93 518.44 751.46 515.76 745 512.06 738.46 508.41 731 504.04 722.7 499.11 714.39 494.71 705.68 490.25 696.72 485.91 687.78 482.33 678.59 478.88 669.3 475.59 660.07 473.01 650.77 470.44 641.59 467.79 632.59 465.64 623.86 463.2 615.65 460.38 607.88 457.81 600.89 454.68 594.97 450.93 587.89 445.06 582.34 429.66 584.23 420.09 586.66 413.44 590.41 406.07 595.28 398.02 600.07 389.97 605.23 381.64 610.44 373.18 614.89 364.75 619.15 356.21 623.12 347.71 626.14 339.27 628.99 330.93 631.73 322.83 633.74 314.87 635.94 307.24 638.44 300.11 640.56 293.25 643.24 287 646.56 281.57 651.75 274.48 665.99 266.24 675.05 265.52 681.34 265.98 688.39 267.7 696.18 270.72" stroke-dasharray="13 5" transform="rotate(69.92307692307692, 711, 400)" opacity="0.71"></path><path d="M706.3 283.41C713.4 286.48 720.95 290.41 728.87 295.02 736.84 299.72 745.21 304.97 753.86 310.63 762.56 316.21 771.53 322.11 780.56 328.24 789.52 334.2 798.37 340.37 806.82 346.68 814.84 352.81 822.11 359.12 828.26 365.56 833.5 371.87 837.21 378.39 839.1 385.08 839.76 391.69 838.44 398.55 835.09 405.61 830.72 412.66 824.67 419.95 817.23 427.44 809.68 434.93 801.86 442.27 794.22 449.37 787.44 456.43 781.27 463.21 775.87 469.56 769.89 478.7 762.21 493.71 759.44 499.12 753.8 504.6 739.11 501.98 731.27 497.6 725.72 494.47 719.33 490.71 712.13 486.42 704.93 482.55 697.31 478.54 689.42 474.55 681.57 471.12 673.49 467.73 665.35 464.39 657.31 461.61 649.28 458.79 641.45 455.91 633.85 453.43 626.59 450.72 619.91 447.74 610.93 443.41 598.53 432.59 595.82 425.87 595.16 421.21 595.81 415.94 597.8 410.06 600.25 404.17 603.81 397.67 608.34 390.6 612.8 383.53 617.62 376.24 622.57 368.84 626.94 361.47 631.23 354.04 635.35 346.67 638.72 339.37 641.96 332.19 645.11 325.27 647.63 318.48 650.24 312.03 653.04 306.07 656.82 297.75 666.35 285.01 672.47 281.05 679.15 278.68 696.03 279.81 706.3 283.41" stroke-dasharray="20 13" transform="rotate(73.8076923076923, 711, 400)" opacity="0.74"></path><path d="M717.19 296.1C723.56 298.84 730.33 302.31 737.37 306.38 744.44 310.54 751.79 315.21 759.29 320.25 774.22 330.22 789.24 341.42 802.61 353.16 814.31 364.45 822.34 376.45 824.76 388.79 824.63 394.89 822.96 401.14 819.72 407.49 815.79 413.83 810.54 420.31 804.18 426.86 797.73 433.41 790.97 439.72 784.23 445.72 778.06 451.7 772.22 457.34 766.85 462.53 758.67 472.69 752.07 480.71 746.31 485.85 739.8 490.84 724.63 486.93 717.79 483.21 712.99 480.58 707.51 477.4 701.38 473.73 695.24 470.38 688.76 466.84 682.08 463.23 675.45 460.05 668.66 456.8 661.88 453.54 648.66 448.27 636.02 442.53 625.4 436.17 616.28 430.63 610.3 423.63 608.56 415.04 608.98 408.43 615.61 392.86 621.39 383.9 625.47 377.78 629.9 371.51 634.5 365.19 638.68 358.9 642.89 352.59 647.02 346.37 653.56 334.13 660.01 322.58 666.6 312.71 671.75 303.59 678.21 296.72 686.43 292.98 692.64 291.29 707.95 292.81 717.19 296.1" stroke-dasharray="8 4" transform="rotate(77.6923076923077, 711, 400)" opacity="0.78"></path><path d="M727.07 308.79C738.25 313.71 750.42 320.97 762.72 329.72 774.79 338.48 786.35 348.4 796 358.86 804.25 369.08 809.24 379.91 809.77 390.9 807.95 401.79 801.57 413.05 791.12 424.24 780.44 435.42 769.03 445.43 758.41 453.78 749.94 461.93 742.44 468.12 735.68 471.87 730.37 475.16 724.52 475.87 717.58 473.87 710.92 471.73 702.47 467.36 692.19 461.05 681.91 455.62 670.9 449.43 660.1 443.02 649.7 437.77 640.14 432 632.51 425.73 626.03 420.11 622.24 413.42 621.88 405.61 622.88 397.93 627.14 388.82 634.45 378.42 641.59 368.02 649.79 357.37 658.09 347.17 664.87 337.16 671.74 327.9 678.69 320.17 684.5 313.02 691.2 307.8 699.09 305.2 706.59 303.47 715.88 304.56 727.07 308.79" stroke-dasharray="16 18" transform="rotate(81.57692307692308, 711, 400)" opacity="0.82"></path><path d="M734.33 321.48C743.81 325.63 753.6 331.72 763.03 339.06 772.21 346.47 780.48 354.94 786.87 363.9 792.25 372.77 794.94 382.14 794.24 391.57 792.1 400.96 786.61 410.52 778.07 419.77 769.36 429.03 759.78 437.07 750.42 443.59 742.34 449.98 734.69 454.68 727.57 457.38 721.47 459.84 715.17 460.29 708.43 458.62 701.96 456.94 694.5 453.48 686.06 448.36 677.63 443.84 669.07 438.5 661.03 432.79 653.28 427.84 646.52 422.35 641.5 416.45 637.25 411 635.19 404.78 635.79 397.83 637.22 391 641.16 383.2 647.51 374.59 653.74 365.97 661 357.39 668.57 349.36 675.18 341.46 682.04 334.33 688.99 328.55 695.15 323.16 701.9 319.39 709.36 317.72 716.53 316.65 724.85 317.81 734.33 321.48" stroke-dasharray="9 15" transform="rotate(85.46153846153847, 711, 400)" opacity="0.85"></path><path d="M737.8 334.16C745.44 337.53 752.84 342.41 759.55 348.29 766.06 354.27 771.51 361.13 775.31 368.42 778.49 375.69 779.61 383.38 778.28 391.07 776.18 398.75 771.7 406.47 765.01 413.8 758.22 421.14 750.54 427.37 742.76 432.3 735.64 437.17 728.56 440.65 721.81 442.6 715.65 444.45 709.44 444.76 703.19 443.49 697.15 442.27 690.71 439.65 684 435.67 677.28 432.07 670.93 427.67 665.32 422.83 657.66 415.99 649.54 400.56 650.27 391.86 651.84 386 655.28 379.55 660.56 372.68 665.77 365.81 671.91 359.19 678.45 353.15 684.46 347.2 690.82 341.99 697.3 337.89 703.31 334.05 709.71 331.49 716.44 330.56 722.99 329.98 730.16 331.12 737.8 334.16" stroke-dasharray="8 21" transform="rotate(89.34615384615384, 711, 400)" opacity="0.89"></path><path d="M736.9 346.85C748.34 352.12 757.36 361.64 761.62 372.59 764.64 383.62 761.58 395.9 751.95 406.78 742.12 417.67 729.73 424.94 718.01 427.75 707.43 430.47 696.45 428.95 686.32 422.98 676.19 417.85 668.66 409.95 665.42 401.17 662.91 393.02 665.47 383.15 673.62 372.85 681.59 362.54 692.45 353.72 703.6 348.24 713.89 343.26 725.46 342.32 736.9 346.85" stroke-dasharray="0 12" transform="rotate(93.23076923076924, 711, 400)" opacity="0.93"></path><path d="M731.79 359.54C739.32 363.06 744.44 369.35 746.23 376.59 747.59 383.92 745.22 392.08 738.9 399.25 732.49 406.42 724.02 411.17 715.66 413.05 707.68 414.95 699.53 414.12 692.67 410.29 685.8 406.83 681.41 401.27 680.06 395 678.9 389 681.02 381.97 686.67 375.08 692.25 368.19 699.99 362.7 708.04 359.57 715.82 356.63 724.25 356.35 731.79 359.54" stroke-dasharray="20 21" transform="rotate(97.11538461538461, 711, 400)" opacity="0.96"></path></g></svg>