<svg width="48" height="48" viewBox="0 0 48 48" fill="none" xmlns="http://www.w3.org/2000/svg">
<rect width="48" height="48" rx="10" fill="white"/>
<path d="M24 2C36.1506 2 46 12.0978 46 24.5564C46 34.5202 39.7036 42.9727 30.9674 45.9581C29.852 46.1803 29.456 45.4758 29.456 44.8752C29.456 44.1316 29.4824 41.7029 29.4824 38.6845C29.4824 36.5813 28.7784 35.2086 27.9886 34.509C32.888 33.9502 38.036 32.0427 38.036 23.3791C38.036 20.9151 37.1824 18.9044 35.77 17.3248C35.9988 16.755 36.7534 14.4607 35.5544 11.3543C35.5544 11.3543 33.7108 10.7499 29.511 13.6671C27.7532 13.1677 25.87 12.9164 24 12.9076C22.13 12.9164 20.249 13.1677 18.4934 13.6671C14.2892 10.7499 12.4412 11.3543 12.4412 11.3543C11.2466 14.4607 12.0012 16.755 12.2278 17.3248C10.822 18.9044 9.96181 20.9151 9.96181 23.3791C9.96181 32.0207 15.0988 33.9575 19.985 34.5273C19.3558 35.0905 18.786 36.084 18.588 37.5426C17.334 38.119 14.1484 39.1166 12.186 35.6692C12.186 35.6692 11.0222 33.5019 8.8134 33.3435C8.8134 33.3435 6.6684 33.315 8.6638 34.7142C8.6638 34.7142 10.1048 35.4072 11.1058 38.0142C11.1058 38.0142 12.3972 42.0401 18.5176 40.6761C18.5286 42.5615 18.5484 44.3384 18.5484 44.8752C18.5484 45.4714 18.1436 46.1692 17.0458 45.9602C8.30299 42.9792 2 34.5224 2 24.5564C2 12.0978 11.8516 2 24 2Z" fill="black"/>
</svg>
