<svg width="48" height="48" viewBox="0 0 48 48" fill="none" xmlns="http://www.w3.org/2000/svg">
<g clip-path="url(#clip0_31_6)">
<rect width="48" height="48" rx="10" fill="white"/>
<rect width="48" height="48" fill="white"/>
<path d="M4.7998 7.55039C4.7998 6.03119 6.0622 4.79999 7.6198 4.79999H40.3798C41.9374 4.79999 43.1998 6.03119 43.1998 7.55039V40.4496C43.1998 41.9688 41.9374 43.2 40.3798 43.2H7.6198C6.0622 43.2 4.7998 41.9688 4.7998 40.4496V7.55039ZM16.663 36.9456V19.6056H10.9006V36.9456H16.663ZM13.783 17.2368C15.7918 17.2368 17.0422 15.9072 17.0422 14.2416C17.0062 12.54 15.7942 11.2464 13.8214 11.2464C11.8486 11.2464 10.5598 12.5424 10.5598 14.2416C10.5598 15.9072 11.8102 17.2368 13.7446 17.2368H13.783ZM25.5622 36.9456V27.2616C25.5622 26.7432 25.6006 26.2248 25.7542 25.8552C26.1694 24.8208 27.1174 23.748 28.711 23.748C30.7966 23.748 31.6294 25.3368 31.6294 27.6696V36.9456H37.3918V27C37.3918 21.672 34.5502 19.1952 30.7582 19.1952C27.7006 19.1952 26.3302 20.8752 25.5622 22.0584V22.1184H25.5238L25.5622 22.0584V19.6056H19.8022C19.8742 21.2328 19.8022 36.9456 19.8022 36.9456H25.5622Z" fill="black"/>
</g>
<defs>
<clipPath id="clip0_31_6">
<rect width="48" height="48" rx="10" fill="white"/>
</clipPath>
</defs>
</svg>
